HIERARCHY
ROOT pelvis
{
  OFFSET 0 100 0
  CHANNELS 6 Xposition Yposition Zposition Zrotation Xrotation Yrotation
  JOINT pelvis_right_femur
  {
    OFFSET -10.78128 -3.44521 -0.5502486
    CHANNELS 3 Zrotation Xrotation Yrotation
    JOINT right_femur_tibia
    {
      OFFSET -0.8047443 -44.0398 -0.1307829
      CHANNELS 3 Zrotation Xrotation Yrotation
      JOINT right_tibia_foot
      {
        OFFSET 3.006224 -47.83518 -5
        CHANNELS 3 Zrotation Xrotation Yrotation
        End Site
        {
          OFFSET 0 -5 15
        }
      }
    }
  }
  JOINT pelvis_left_femur
  {
    OFFSET 10.78128 -3.44521 -0.5502486
    CHANNELS 3 Zrotation Xrotation Yrotation
    JOINT left_femur_tibia
    {
      OFFSET 0.8047443 -44.0398 -0.1307829
      CHANNELS 3 Zrotation Xrotation Yrotation
      JOINT left_tibia_foot
      {
        OFFSET -4.370144 -48.10324 -4.275266
        CHANNELS 3 Zrotation Xrotation Yrotation
        End Site
        {
          OFFSET 0 -5 15
        }
      }
    }
  }
  JOINT pelvis_spine1
  {
    OFFSET 0 6.468898 -3.129235
    CHANNELS 3 Zrotation Xrotation Yrotation
    JOINT spine1
    {
      OFFSET 0 23.15396 4.99043
      CHANNELS 3 Zrotation Xrotation Yrotation
      JOINT spine2
      {
        OFFSET 0 20.79997 -5.064912
        CHANNELS 3 Zrotation Xrotation Yrotation
        JOINT neck
        {
          OFFSET 0 14.38658 9.616178
          CHANNELS 3 Zrotation Xrotation Yrotation
          End Site
          {
            OFFSET 0 20 0
          }
        }
      }
      JOINT right_manubrium
      {
        OFFSET -5.722621 16.35077 3.967754
        CHANNELS 3 Zrotation Xrotation Yrotation
        JOINT right_clavicle
        {
          OFFSET -13.16364 1.694482 -4.693211
          CHANNELS 3 Zrotation Xrotation Yrotation
          JOINT right_humerus
          {
            OFFSET -28.5034 -0.3100689 -2.792744
            CHANNELS 3 Zrotation Xrotation Yrotation
            JOINT right_radius
            {
              OFFSET -25.15693 0.02248979 -1.271978
              CHANNELS 3 Zrotation Xrotation Yrotation
              End Site
              {
                OFFSET -15 0 0
              }
            }
          }
        }
      }
      JOINT left_manubrium
      {
        OFFSET 5.722621 16.35077 3.967754
        CHANNELS 3 Zrotation Xrotation Yrotation
        JOINT left_clavicle
        {
          OFFSET 13.16364 1.694482 -4.693211
          CHANNELS 3 Zrotation Xrotation Yrotation
          JOINT left_humerus
          {
            OFFSET 29.39168 -1.063119 -2.237045
            CHANNELS 3 Zrotation Xrotation Yrotation
            JOINT left_radius
            {
              OFFSET 24.59957 -0.9528479 0.9047498
              CHANNELS 3 Zrotation Xrotation Yrotation
              End Site
              {
                OFFSET 15 -0 -0
              }
            }
          }
        }
      }
    }
  }
}
MOTION
Frames: 23
Frame Time: 0.0416666666667
0 103.5113 0 1.470156 0.05436116 -0.03377347 4.185483 -18.12458 11.58554 -0 41.95602 -0 -4.391711 -17.0166 -2.943481 -8.318006 9.355941 -24.04648 -0 5.254431 -0 16.14384 -12.91129 31.13717 -4.443 -3.873686 5.689185 2.29863 10.28715 -7.482389 1.56684 21.55488 6.964099 3.215117 -24.93505 10.09071 7.385141 -20.29038 12.03569 85.79774 40.69776 -18.03662 -0 0 16.07424 -4.929274 9.026041 3.41607 6.145652 -19.42012 -0.8691738 -91.23634 22.40509 19.70027 0 0 -17.55525 15.72641 13.81383 -3.389509
0.331221 104.4473 1.454173 1.386177 0.3585755 -0.02800664 4.550803 -19.80517 11.50095 -0 40.35688 -0 -4.303014 -16.06929 -2.724863 -8.331555 9.623323 -23.82826 -0 4.700022 -0 16.46312 -13.38149 31.1595 -4.354066 -3.533902 5.724716 2.230416 10.29267 -7.332301 1.68088 21.43733 7.060611 3.321498 -25.06784 10.27842 7.162084 -20.27988 11.93979 86.17518 40.95223 -18.25863 -0 0 15.73983 -4.773424 9.028642 3.411573 6.227783 -19.5094 -1.157592 -90.92254 22.72102 19.46814 0 0 -18.95794 15.75282 13.30815 -3.155174
0.6917929 105.0807 3.487497 0.606886 1.525808 0.09115601 5.663706 -24.71389 10.081 -0 33.46151 -0 -4.578067 -12.89795 -2.00698 -7.558316 10.65696 -22.19788 -0 4.46258 -0 14.39504 -16.2589 28.59986 -3.798993 -2.709896 5.216804 2.714022 10.03557 -7.405967 1.72829 21.08122 7.049038 3.289688 -25.90089 10.39018 6.504589 -19.96788 11.69918 86.25585 39.38889 -18.82783 -0 0 15.13117 -5.450741 8.845239 3.955226 6.358785 -19.76191 -1.596366 -91.28611 23.17474 19.94665 0 0 -19.75337 14.31377 13.25273 -1.62551
1.050018 105.503 5.990633 0.01608425 2.273613 0.3008792 6.375199 -27.99907 9.040088 -0 28.71869 -0 -4.905457 -10.74935 -1.620198 -6.955177 11.63946 -20.9229 -0 5.055414 -0 12.52558 -18.07756 26.4333 -3.381468 -2.140063 4.749292 3.069344 9.78547 -7.485713 1.753662 20.90645 7.013187 3.245693 -26.34261 10.42108 6.080006 -19.53655 11.49766 86.37567 38.38905 -19.31952 -0 0 14.43746 -5.93152 8.786444 4.28345 6.373783 -19.9249 -1.902634 -91.40381 23.62784 20.03164 0 0 -20.24057 13.18195 13.26666 -0.4533956
1.396612 105.8072 8.906427 -0.4075068 2.802791 0.5639867 6.909218 -30.41176 8.345043 -0 25.42869 -0 -5.205489 -9.078355 -1.357235 -6.56236 12.53115 -19.94255 -0 5.97833 -0 11.20137 -19.04955 24.82532 -3.043674 -1.713972 4.40658 3.240479 9.600973 -7.500606 1.786682 20.80738 7.027569 3.265806 -26.52452 10.45408 5.793912 -19.09601 11.32398 86.68901 38.02506 -19.80968 -0 0 13.61636 -6.157508 8.80136 4.429248 6.363724 -20.09067 -2.19227 -91.16167 24.03659 19.72055 0 0 -21.12727 12.55176 13.07694 0.2821038
1.730313 106.0547 12.2109 -0.7560373 3.201225 0.8613123 7.334848 -32.20595 7.785022 -0 22.92347 -0 -5.531255 -7.66949 -1.15152 -6.257932 13.33847 -19.08346 -0 7.237445 -0 10.05372 -19.53512 23.42278 -2.728368 -1.408273 4.118025 3.32983 9.459316 -7.509436 1.799046 20.75466 7.06032 3.304319 -26.57699 10.45581 5.581578 -18.65695 11.17924 87.08791 37.8757 -20.31124 -0 0 12.73824 -6.318037 8.839771 4.51344 6.332971 -20.28133 -2.446968 -90.77208 24.35193 19.24339 0 0 -22.08154 12.16181 12.85199 0.7798024
2.049556 106.2893 15.91146 -1.079619 3.502688 1.177934 7.68781 -33.55405 7.233895 -0 20.78942 -0 -5.923172 -6.383587 -0.9799164 -5.977003 14.09988 -18.22231 -0 8.940005 -0 8.878191 -19.6952 22.01182 -2.4015 -1.192626 3.837392 3.384985 9.345082 -7.535599 1.783836 20.74286 7.092116 3.336018 -26.5461 10.4121 5.391984 -18.19719 11.05537 87.55601 37.7411 -20.85266 -0 0 11.77826 -6.513713 8.889444 4.594844 6.275722 -20.51336 -2.677776 -90.29586 24.5722 18.65474 0 0 -23.00547 11.87482 12.65378 1.15388
2.351236 106.5537 20.02492 -1.391741 3.69895 1.495747 7.977377 -34.46546 6.64747 -0 18.91361 -0 -6.399902 -5.193429 -0.8455077 -5.697115 14.81216 -17.31357 -0 11.21665 -0 7.606762 -19.55121 20.52226 -2.052953 -1.05628 3.548396 3.423809 9.257812 -7.5874 1.738369 20.77712 7.111583 3.34768 -26.44085 10.31435 5.205149 -17.7073 10.95241 88.08988 37.54703 -21.44187 -0 0 10.72246 -6.783783 8.948333 4.695571 6.176358 -20.78653 -2.894522 -89.75882 24.70227 17.97971 0 0 -23.8452 11.62543 12.50653 1.460436
2.630432 106.8977 24.56922 -1.69067 3.766244 1.791751 8.20929 -34.88206 6.015562 -0 17.28493 -0 -6.975294 -4.102413 -0.7568865 -5.411644 15.43735 -16.33796 -0 14.2181 -0 6.235191 -19.06565 18.94722 -1.67845 -0.9967572 3.251845 3.44975 9.208999 -7.666424 1.661156 20.86414 7.111649 3.332157 -26.26028 10.15584 5.007061 -17.19128 10.87562 88.69814 37.25775 -22.08117 -0 0 9.562847 -7.148989 9.015507 4.82874 6.016542 -21.10078 -3.109756 -89.17394 24.74179 17.23907 0 0 -24.57804 11.38218 12.41548 1.731197
2.8798 107.3812 29.55521 -1.966201 3.668183 2.036633 8.390182 -34.69641 5.347271 -0 15.9309 -0 -7.661881 -3.13381 -0.7276869 -5.117596 15.89362 -15.28737 -0 18.11307 -0 4.79438 -18.17785 17.31654 -1.276736 -1.014581 2.960981 3.460628 9.220399 -7.771325 1.552007 21.01044 7.083794 3.282304 -26.00414 9.929619 4.779957 -16.66951 10.83537 89.39009 36.83452 -22.76223 -0 0 8.308698 -7.62976 9.08885 5.009953 5.775013 -21.45578 -3.337697 -88.56159 24.68393 16.47106 0 0 -25.17834 11.12159 12.38179 1.995185
3.088784 108.0748 34.97615 -2.201256 3.357058 2.193975 8.530894 -33.76229 4.669972 -0 14.88855 -0 -8.468136 -2.327701 -0.7761745 -4.810588 16.03781 -14.16102 -0 23.07393 -0 3.350286 -16.82262 15.69433 -0.849812 -1.107323 2.703781 3.450545 9.325231 -7.896383 1.414179 21.21962 7.01523 3.188816 -25.67894 9.629705 4.496664 -16.18536 10.84746 90.1691 36.22385 -23.45718 -0 0 6.999019 -8.250741 9.165779 5.262145 5.427904 -21.84845 -3.595725 -87.9583 24.51531 15.74618 0 0 -25.61023 10.82127 12.4026 2.286649
3.24326 109.054 40.79225 -2.37194 2.777656 2.221441 8.646225 -31.90843 4.033044 -0 14.18338 -0 -9.388848 -1.744129 -0.9238391 -4.481504 15.64028 -12.96931 -0 29.22278 -0 2.013334 -14.95518 14.18532 -0.4057386 -1.261903 2.529063 3.409417 9.568661 -8.026933 1.258182 21.48746 6.886816 3.038984 -25.30448 9.254949 4.116957 -15.81699 10.9332 91.02255 35.35767 -24.10226 -0 0 5.725368 -9.0388 9.245933 5.618795 4.951329 -22.26676 -3.904613 -87.42529 24.21852 15.18604 0 0 -25.82795 10.45778 12.46675 2.651038
3.326904 110.3855 46.91088 -2.448873 1.879419 2.076605 8.747499 -28.97032 3.506126 -0 13.79884 -0 -10.38796 -1.467244 -1.190086 -4.113045 14.36493 -11.73969 -0 36.51508 -0 0.9422101 -12.59237 12.9339 0.03684268 -1.444329 2.511939 3.3214 10.00229 -8.132057 1.106648 21.79456 6.671918 2.815639 -24.91996 8.815313 3.587247 -15.68931 11.11635 91.90788 34.16637 -24.57631 -0 0 4.661995 -10.01643 9.337987 6.126608 4.328423 -22.67966 -4.285223 -87.0533 23.77855 14.98053 0 0 -25.78541 10.00568 12.54866 3.150509
3.326608 112.0963 53.16953 -2.401312 0.6435471 1.730826 8.824214 -24.85001 3.163097 -0 13.63989 -0 -11.37408 -1.610636 -1.580233 -3.678195 11.7851 -10.52039 -0 44.53702 -0 0.3262875 -9.869653 12.10172 0.4421974 -1.590351 2.750347 3.163344 10.66361 -8.156311 0.9975133 22.09867 6.338331 2.496986 -24.58285 8.339095 2.851467 -15.974 11.41304 92.73559 32.61692 -24.68153 -0 0 4.091828 -11.1887 9.473124 6.844935 3.563023 -23.02238 -4.746586 -86.95551 23.19534 15.38612 0 0 -25.45644 9.43609 12.60558 3.866385
3.244601 114.1295 59.33995 -2.204409 -0.8715657 1.192347 8.819209 -19.5991 3.045327 -0 13.51823 -0 -12.17988 -2.321179 -2.064826 -3.145914 7.492525 -9.373972 -0 52.24798 -0 0.3283451 -7.089648 11.8121 0.750554 -1.609035 3.337857 2.905945 11.53132 -8.018057 0.9778996 22.33374 5.858242 2.060883 -24.34754 7.875071 1.885596 -16.85219 11.81171 93.35523 30.78723 -24.14865 -0 0 4.393169 -12.5236 9.723127 7.835527 2.699579 -23.18379 -5.260182 -87.23492 22.50246 16.6709 0 0 -24.86267 8.715544 12.58662 4.888577
3.115974 116.3047 65.18007 -1.848406 -2.480185 0.5303221 8.620213 -13.48929 3.110313 -0 13.2107 -0 -12.57922 -3.765198 -2.554282 -2.49666 1.351115 -8.352682 -0 57.85364 -0 0.9816375 -4.703441 12.06752 0.8782674 -1.418928 4.300019 2.524957 12.46508 -7.631643 1.077362 22.42786 5.232086 1.500772 -24.21504 7.477586 0.7612393 -18.41305 12.25148 93.55355 28.95909 -22.70227 -0 0 5.927698 -13.93287 10.20402 9.133516 1.839539 -23.01784 -5.726394 -87.92125 21.78312 18.97337 0 0 -24.08835 7.812232 12.46109 6.272816
3.019314 118.3325 70.53783 -1.350337 -3.861992 -0.1242451 8.106418 -7.008671 3.198847 -0 12.60591 -0 -12.3879 -6.054655 -2.887193 -1.735809 -6.174341 -7.460251 -0 59.19236 -0 2.086065 -3.159629 12.68865 0.7420339 -1.020221 5.51417 2.032432 13.18825 -6.970657 1.260253 22.34415 4.522563 0.8576301 -24.08276 7.166427 -0.2942218 -20.5124 12.63005 93.0771 27.63815 -20.20504 -0 0 8.800184 -15.27142 11.02129 10.69844 1.130122 -22.41346 -5.970453 -88.90667 21.15986 22.10973 0 0 -23.24459 6.726934 12.25047 7.952204
3.059811 119.9169 75.44272 -0.771349 -4.66106 -0.6254286 7.260408 -0.7565431 3.078342 -0 11.81031 -0 -11.63252 -9.087022 -2.868583 -0.8837758 -13.92939 -6.627029 -0 54.86609 -0 3.225749 -2.649583 13.3606 0.3166822 -0.5454242 6.694113 1.517036 13.40615 -6.146289 1.395362 22.11749 3.870067 0.2493116 -23.77785 6.884548 -0.9291142 -22.72844 12.86834 91.70796 27.36544 -16.81972 -0 0 12.61588 -16.3735 12.13351 12.37518 0.7068029 -21.4184 -5.823769 -89.95303 20.72898 25.5011 0 0 -22.37629 5.555338 12.01657 9.64609
3.322969 120.8885 80.08309 -0.226273 -4.679023 -0.8877231 6.256227 4.706453 2.576906 -0 11.02213 -0 -10.63368 -12.42332 -2.380737 0.04796544 -20.54667 -5.737235 -0 45.44807 -0 3.995203 -2.95211 13.8194 -0.3134648 -0.1949382 7.518121 1.133768 13.03297 -5.399047 1.307369 21.84023 3.448138 -0.1522138 -23.20843 6.514662 -0.8556841 -24.55782 12.9798 89.41569 28.35228 -13.032 -0 0 16.52902 -17.12008 13.24322 13.92731 0.6233193 -20.30134 -5.265712 -90.81463 20.46411 28.40575 0 0 -21.3987 4.523682 11.79203 10.89925
3.834477 121.2465 84.6742 0.151454 -4.010356 -0.9210535 5.384151 8.995348 1.699775 -0 10.28865 -0 -9.84615 -15.45033 -1.49511 1.048424 -25.2112 -4.721982 -0 33.38704 -0 4.259237 -3.583856 14.03447 -0.9809758 -0.08378733 7.822725 1.005072 12.2788 -4.945738 0.9034877 21.6032 3.367072 -0.2177034 -22.47455 5.976304 -0.0767499 -25.72062 13.04263 86.48502 30.27958 -9.439923 -0 0 19.68526 -17.50294 13.91621 15.15959 0.8373913 -19.41287 -4.468884 -91.38883 20.21263 30.33143 0 0 -20.16673 3.892144 11.54504 11.33264
4.560028 121.0904 89.35092 0.2821162 -2.974325 -0.7990096 4.849378 12.01079 0.6051767 -0 9.506194 -0 -9.567556 -17.76478 -0.4462254 2.069053 -27.94774 -3.641942 -0 21.44502 -0 4.148352 -4.132221 14.17602 -1.528399 -0.1728507 7.665579 1.129504 11.45451 -4.827964 0.2499568 21.45946 3.609725 0.04818668 -21.77259 5.308719 1.100022 -26.25029 13.10379 83.42719 32.51212 -6.466477 -0 0 21.67151 -17.63595 13.88307 16.02442 1.25265 -18.94138 -3.669601 -91.7414 19.84093 31.23078 0 0 -18.61324 3.766695 11.24331 10.90802
5.434967 120.5384 94.1612 0.1748603 -1.91355 -0.6121857 4.667402 13.94017 -0.5151875 -0 8.620017 -0 -9.806426 -19.34574 0.5220128 3.024793 -29.26006 -2.653185 -0 11.3124 -0 3.846048 -4.42825 14.4208 -1.874233 -0.346881 7.219717 1.404278 10.74533 -4.929384 -0.4865751 21.42981 4.062638 0.5236351 -21.22458 4.640528 2.284644 -26.33711 13.14566 80.71667 34.48146 -4.245212 -0 0 22.56338 -17.68728 13.18651 16.60132 1.764014 -18.83337 -3.01914 -92.00067 19.35085 31.35013 0 0 -16.79436 4.039931 10.91706 9.909955
6.392695 119.693 99.11007 -0.1021265 -1.053504 -0.4451516 4.731033 15.11051 -1.52157 -0 7.691503 -0 -10.38595 -20.38434 1.268668 3.835684 -29.67877 -1.901526 -0 3.494114 -0 3.457528 -4.481556 14.84217 -2.011243 -0.5123329 6.651361 1.710262 10.18581 -5.096516 -1.149315 21.51486 4.59694 1.065262 -20.83564 4.096268 3.209126 -26.16352 13.12722 78.6176 35.87494 -2.710162 -0 0 22.67078 -17.79026 12.05633 16.99682 2.288529 -18.91697 -2.55874 -92.26194 18.83435 30.98821 0 0 -14.82192 4.514378 10.63587 8.69979
